<svg xmlns="http://www.w3.org/2000/svg" xmlns:xlink="http://www.w3.org/1999/xlink" version="1.1" x="0px" y="0px" viewBox="0 0 100 125" enable-background="new 0 0 100 100" xml:space="preserve"><path d="M53.041,21c-15.739,0-28.5,12.76-28.5,28.5S37.302,78,53.041,78s28.5-12.76,28.5-28.5S68.78,21,53.041,21z M49.748,59.23  c-0.293,0.292-0.676,0.437-1.059,0.437c-0.385,0-0.77-0.147-1.063-0.441c-0.584-0.587-0.583-1.537,0.004-2.122l7.656-7.624  l-7.675-7.937c-0.576-0.596-0.56-1.545,0.035-2.121c0.596-0.576,1.546-0.561,2.121,0.036l9.731,10.063L49.748,59.23z"/><text x="0" y="115" fill="#000000" font-size="5px" font-weight="bold" font-family="'Helvetica Neue', Helvetica, Arial-Unicode, Arial, Sans-serif">Created by 4B Icons</text><text x="0" y="120" fill="#000000" font-size="5px" font-weight="bold" font-family="'Helvetica Neue', Helvetica, Arial-Unicode, Arial, Sans-serif">from the Noun Project</text></svg>